{"title":"Iron Man 1 1080p BluRay Dual Audio By Ashish7(wall.e)","uid":7482004,"size":4686273563,"categoryP":"video","categoryS":"hd___movies","magnet":"?xt=urn:btih:9fbded84f93e6a116303692f3e7009b527dfba19&amp;dn=Iron+Man+1+1080p+BluRay+Dual+Audio+By+Ashish7%28wall.e%29&amp;tr=udp%3A%2F%2Ftracker.openbittorrent.com%3A80&amp;tr=udp%3A%2F%2Fopen.demonii.com%3A1337&amp;tr=udp%3A%2F%2Ftracker.coppersurfer.tk%3A6969&amp;tr=udp%3A%2F%2Fexodus.desync.com%3A6969","seeders":2,"leechers":2,"uploader":"wall.e","files":14,"time":1343461145,"description":"Format                           : Matroska\nFile size                        : 4.32 GiB\nDuration                         : 2h 6mn\nOverall bit rate                 : 4912 Kbps\n\nVideo\nID                               : 1\nFormat                           : AVC\nFormat/Info                      : Advanced Video Codec\nBit rate                         : 4145 Kbps\nMaximum bit rate                 : 18.0 Mbps\nWidth                            : 1920 pixels\nHeight                           : 1080 pixels\nDisplay aspect ratio             : 16:9\nFrame rate                       : 23.976 fps\nColor space                      : YUV\nChroma subsampling               : 4:2:0\nStream size                      : 3.56 GiB (82%)\nTitle                            : 1080p BluRay By Ashish7(wall.e)\n\nAudio #1\nID                               : 2\nFormat                           : AC-3\nFormat/Info                      : Audio Coding 3\nBit rate                         : 448 Kbps\nChannel(s)                       : 6 channels\nChannel positions                : Front: L C R, Side: L R, LFE\nSampling rate                    : 48.0 KHz\nBit depth                        : 16 bits\nStream size                      : 404 MiB (9%)\nTitle                            : 5.1 English Audio By Ashish7(wall.e)\n\nAudio #2\nID                               : 3\nFormat                           : MPEG Audio\nBit rate                         : 320 Kbps\nChannel(s)                       : 2 channels\nSampling rate                    : 44.1 KHz\nStream size                      : 288 MiB (7%)\nTitle                            : Hindi Audio By Ashish7(wall.e)","torrent":{"xt":"urn:btih:9fbded84f93e6a116303692f3e7009b527dfba19","amp;dn":"Iron+Man+1+1080p+BluRay+Dual+Audio+By+Ashish7%28wall.e%29","amp;tr":["udp%3A%2F%2Ftracker.openbittorrent.com%3A80","udp%3A%2F%2Fopen.demonii.com%3A1337","udp%3A%2F%2Ftracker.coppersurfer.tk%3A6969","udp%3A%2F%2Fexodus.desync.com%3A6969"],"infoHash":"9fbded84f93e6a116303692f3e7009b527dfba19","infoHashBuffer":{"type":"Buffer","data":[159,189,237,132,249,62,106,17,99,3,105,47,62,112,9,181,39,223,186,25]},"announce":[],"urlList":[]}}